<svg width="52" height="52" viewBox="0 0 52 52" fill="none" xmlns="http://www.w3.org/2000/svg">
<circle cx="26" cy="26" r="25" stroke="#A00055" stroke-width="2"/>
<path fill-rule="evenodd" clip-rule="evenodd" d="M23.0613 26.2396C25.1817 26.2396 26.8946 26.721 28.5843 27.7641C24.7571 30.9122 26.6713 37.3957 29.2034 38.2595L12.1958 38.2449C12.1334 37.9053 12.1334 37.5364 12.1334 37.1681C12.1334 31.1202 17.0146 26.2396 23.0613 26.2396ZM23.0613 13.8666C25.8577 13.8666 28.1598 16.1375 28.1598 18.9651C28.1598 21.7566 25.8577 24.0586 23.0613 24.0586C20.2399 24.0586 17.9672 21.7566 17.9672 18.9651C17.9672 16.1381 20.2399 13.8666 23.0613 13.8666Z" fill="#A00055"/>
<path fill-rule="evenodd" clip-rule="evenodd" d="M34.1165 26.5143C37.5234 26.5143 40.2855 29.2789 40.2855 32.6852C40.2855 36.0628 37.5234 38.8267 34.1165 38.8267C30.7383 38.8267 27.9768 36.0628 27.9768 32.6852C27.9768 29.2789 30.7377 26.5143 34.1165 26.5143ZM33.3775 36.8923H34.8524V33.3924H38.323V31.9181H34.8524V28.4494H33.3775V31.9181H29.91V33.3924H33.3775V36.8923Z" fill="#A00055"/>
</svg>
