<svg width="22" height="20" viewBox="0 0 22 20" fill="none" xmlns="http://www.w3.org/2000/svg">
<path fill-rule="evenodd" clip-rule="evenodd" d="M8.53977 9.66904C10.1968 9.66904 11.5354 10.0453 12.8558 10.8604C9.86499 13.3206 11.3609 18.3872 13.3396 19.0622L0.0487024 19.0508C-6.10921e-05 18.7854 -6.10352e-05 18.4972 -6.10352e-05 18.2094C-6.10352e-05 13.4831 3.81449 9.66904 8.53977 9.66904ZM8.53977 0C10.725 0 12.524 1.77461 12.524 3.98427C12.524 6.16572 10.725 7.96471 8.53977 7.96471C6.3349 7.96471 4.55885 6.16572 4.55885 3.98427C4.55885 1.77509 6.3349 0 8.53977 0Z" fill="#A01257"/>
<path fill-rule="evenodd" clip-rule="evenodd" d="M17.179 9.88379C19.8414 9.88379 21.9999 12.0442 21.9999 14.7061C21.9999 17.3456 19.8414 19.5055 17.179 19.5055C14.5391 19.5055 12.381 17.3456 12.381 14.7061C12.381 12.0442 14.5386 9.88379 17.179 9.88379ZM16.6015 17.9938H17.7541V15.2588H20.4662V14.1066H17.7541V11.3959H16.6015V14.1066H13.8918V15.2588H16.6015V17.9938Z" fill="#A01257"/>
</svg>
