<svg width="52" height="52" viewBox="0 0 52 52" fill="none" xmlns="http://www.w3.org/2000/svg">
<circle cx="26" cy="26" r="25" stroke="#A00055" stroke-width="2"/>
<path fill-rule="evenodd" clip-rule="evenodd" d="M12.303 23.5578H21.7104C23.6894 23.5578 25.3049 25.2128 25.3049 27.191V38.1333H23.4856V29.0498H21.5469V38.1333H12.5418V29.0498H10.6054V38.1333H8.66669V27.191C8.66669 25.2128 10.2837 23.5578 12.303 23.5578ZM16.9843 13.8666C19.3679 13.8666 21.305 15.8038 21.305 18.1867C21.305 20.5688 19.3679 22.5082 16.9843 22.5082C14.6014 22.5082 12.6635 20.5688 12.6635 18.1867C12.6635 15.8038 14.6014 13.8666 16.9843 13.8666Z" fill="#A00055"/>
<path fill-rule="evenodd" clip-rule="evenodd" d="M30.5512 23.5578H39.9199C41.9354 23.5578 43.5516 25.2128 43.5516 27.191V38.1333H41.9354L40.3222 29.694L38.5159 29.8986L39.7564 38.1333H30.7946L32.4542 29.8986L30.6341 29.694L29.0149 38.1333H28.8544H26.9172V27.191C26.918 25.2128 28.5342 23.5578 30.5512 23.5578ZM35.2348 13.8666C37.6192 13.8666 39.5533 15.8038 39.5533 18.1867C39.5533 20.5688 37.6192 22.5082 35.2348 22.5082C32.8504 22.5082 30.9148 20.5688 30.9148 18.1867C30.9148 15.8038 32.8504 13.8666 35.2348 13.8666Z" fill="#A00055"/>
</svg>
