<svg width="22" height="28" viewBox="0 0 22 28" fill="none" xmlns="http://www.w3.org/2000/svg">
<path d="M11 0C8.1125 2.70417 4.2625 4.35417 0 4.35417V18.6542C1.85808 23.2943 6.23471 25.9096 11 27.2708C15.7662 25.9091 20.1424 23.2939 22 18.6542V4.35417C17.7375 4.35417 13.8875 2.70417 11 0ZM11 25.3458C9.66213 24.9714 6.14258 24.2128 3.34583 20.7167C4.58333 18.5167 6.7375 16.9125 9.30417 16.4083C7.37917 15.7667 5.95833 13.8875 5.95833 11.6875C5.95833 8.89167 8.20417 6.64583 11 6.64583C13.7958 6.64583 16.0417 8.89167 16.0417 11.6875C16.0417 13.8875 14.6208 15.7667 12.6958 16.4542C15.2625 16.9583 17.4167 18.5625 18.6542 20.762C16.4496 23.4438 14.0135 24.623 11 25.3458Z" fill="#A01257"/>
</svg>
