<svg width="52" height="52" viewBox="0 0 52 52" fill="none" xmlns="http://www.w3.org/2000/svg">
<circle cx="26" cy="26" r="25" stroke="#A00055" stroke-width="2"/>
<path d="M26.084 14C23.437 16.479 19.9076 17.9916 16 17.9916V31.1008C17.7034 35.3546 21.7155 37.7521 26.084 39C30.4534 37.7517 34.4651 35.3542 36.1681 31.1008V17.9916C32.2605 17.9916 28.7311 16.479 26.084 14ZM26.084 37.2353C24.8576 36.892 21.6311 36.1966 19.0672 32.9916C20.2017 30.9748 22.1765 29.5042 24.5294 29.042C22.7647 28.4538 21.4622 26.7311 21.4622 24.7143C21.4622 22.1513 23.521 20.0924 26.084 20.0924C28.6471 20.0924 30.7059 22.1513 30.7059 24.7143C30.7059 26.7311 29.4034 28.4538 27.6387 29.084C29.9916 29.5462 31.9664 31.0168 33.1008 33.0332C31.0798 35.4916 28.8466 36.5727 26.084 37.2353Z" fill="#A00055"/>
</svg>
