<svg width="52" height="52" viewBox="0 0 52 52" fill="none" xmlns="http://www.w3.org/2000/svg">
<circle cx="26" cy="26" r="25" stroke="#A00055" stroke-width="2"/>
<path d="M36.4416 23.1554H15.8155L25.7544 13.8666L36.4416 23.1554Z" fill="#A00055"/>
<path d="M20.3608 17.3373L18.5366 19.1194V14.8169H20.3608V17.3373Z" fill="#A00055"/>
<path d="M34.7608 24.683H17.4987V35.0902H23.2796V28.5314H28.8568V35.0902H34.7608V24.683Z" fill="#A00055"/>
<path d="M37.0342 36.5679H15.6V38.1333H37.0342V36.5679Z" fill="#A00055"/>
<path d="M35.8448 28.2476H44.6845L40.425 24.2667L35.8448 28.2476Z" fill="#A00055"/>
<path d="M42.7365 25.7541L43.5182 26.5179V24.674H42.7365V25.7541Z" fill="#A00055"/>
<path d="M36.5651 28.9022H43.9631V33.3624H41.4856V30.5515H39.0954V33.3624H36.5651V28.9022Z" fill="#A00055"/>
<path d="M35.5907 33.9958H44.7769V34.6667H35.5907V33.9958Z" fill="#A00055"/>
<path d="M7.18734 28.2476H16.0271L11.7676 24.2667L7.18734 28.2476Z" fill="#A00055"/>
<path d="M14.0791 25.7541L14.8608 26.5179V24.674H14.0791V25.7541Z" fill="#A00055"/>
<path d="M7.90771 28.9022H15.3057V33.3624H12.8282V30.5515H10.438V33.3624H7.90771V28.9022Z" fill="#A00055"/>
<path d="M6.93333 33.9958H16.1194V34.6667H6.93333V33.9958Z" fill="#A00055"/>
</svg>
