<svg width="52" height="52" viewBox="0 0 52 52" fill="none" xmlns="http://www.w3.org/2000/svg">
<circle cx="26" cy="26" r="25" stroke="#A00055" stroke-width="2"/>
<path d="M27.5015 16.8048C27.5015 16.4853 27.3745 16.1788 27.1486 15.9529C26.9226 15.7269 26.6162 15.6 26.2966 15.6C25.9771 15.6 25.6706 15.7269 25.4446 15.9529C25.2187 16.1788 25.0917 16.4853 25.0917 16.8048L25.0881 26.4473C25.0881 26.7669 25.2151 27.0733 25.441 27.2993C25.667 27.5253 25.9734 27.6522 26.293 27.6522C26.6125 27.6522 26.919 27.5253 27.145 27.2993C27.3709 27.0733 27.4979 26.7669 27.4979 26.4473L27.5015 16.806V16.8048Z" fill="#A00055"/>
<path d="M16.6577 27.6282C16.6577 24.9654 17.7361 22.5557 19.4807 20.8123L21.1844 22.5159C20.1733 23.5269 19.4848 24.815 19.2058 26.2174C18.9268 27.6197 19.0699 29.0733 19.6171 30.3943C20.1642 31.7152 21.0908 32.8443 22.2796 33.6387C23.4685 34.4331 24.8662 34.8571 26.296 34.8571C27.7258 34.8571 29.1235 34.4331 30.3124 33.6387C31.5012 32.8443 32.4278 31.7152 32.9749 30.3943C33.5221 29.0733 33.6652 27.6197 33.3862 26.2174C33.1072 24.815 32.4187 23.5269 31.4076 22.5159L33.1125 20.8123C34.2333 21.9331 35.0604 23.3131 35.5205 24.8299C35.9806 26.3468 36.0595 27.9537 35.7503 29.5084C35.441 31.063 34.7531 32.5174 33.7475 33.7427C32.742 34.968 31.4497 35.9264 29.9853 36.5329C28.5209 37.1395 26.9294 37.3756 25.3519 37.2203C23.7745 37.0649 22.2597 36.523 20.9417 35.6424C19.6237 34.7617 18.5432 33.5697 17.796 32.1718C17.0487 30.7739 16.6578 29.2133 16.6577 27.6282Z" fill="#A00055"/>
</svg>
