<svg width="22" height="25" viewBox="0 0 22 25" fill="none" xmlns="http://www.w3.org/2000/svg">
<path d="M12.375 1.375C12.375 1.01033 12.2301 0.660591 11.9722 0.402728C11.7144 0.144866 11.3646 0 11 0C10.6353 0 10.2856 0.144866 10.0277 0.402728C9.76984 0.660591 9.62497 1.01033 9.62497 1.375L9.62085 12.3791C9.62085 12.7438 9.76572 13.0935 10.0236 13.3514C10.2814 13.6093 10.6312 13.7541 10.9958 13.7541C11.3605 13.7541 11.7103 13.6093 11.9681 13.3514C12.226 13.0935 12.3708 12.7438 12.3708 12.3791L12.375 1.37638V1.375Z" fill="#A01257"/>
<path d="M0 13.7267C0 10.6879 1.23062 7.93794 3.22162 5.94832L5.16587 7.89257C4.01204 9.04633 3.22625 10.5163 2.90787 12.1167C2.5895 13.7171 2.75285 15.3759 3.37725 16.8834C4.00166 18.3909 5.05908 19.6794 6.4158 20.586C7.77252 21.4925 9.36759 21.9764 10.9993 21.9764C12.631 21.9764 14.2261 21.4925 15.5828 20.586C16.9395 19.6794 17.997 18.3909 18.6214 16.8834C19.2458 15.3759 19.4091 13.7171 19.0908 12.1167C18.7724 10.5163 17.9866 9.04633 16.8328 7.89257L18.7784 5.94832C20.0574 7.22746 21.0013 8.8023 21.5264 10.5334C22.0515 12.2644 22.1415 14.0982 21.7886 15.8724C21.4357 17.6466 20.6507 19.3063 19.5031 20.7046C18.3555 22.103 16.8808 23.1967 15.2096 23.8889C13.5383 24.5812 11.7222 24.8506 9.92195 24.6733C8.12173 24.4961 6.39301 23.8775 4.88892 22.8726C3.38483 21.8676 2.15178 20.5072 1.29901 18.9119C0.446244 17.3166 6.59152e-05 15.5356 0 13.7267V13.7267Z" fill="#A01257"/>
</svg>
