<svg width="22" height="20" viewBox="0 0 22 20" fill="none" xmlns="http://www.w3.org/2000/svg">
<path d="M15.95 6.36301e-08C14.9784 -0.000140105 14.021 0.2313 13.1593 0.674672C12.2975 1.11804 11.5568 1.76026 11 2.54678C10.4432 1.76026 9.70249 1.11804 8.84074 0.674672C7.97899 0.2313 7.02165 -0.000140105 6.05 6.36301e-08C4.44544 6.36301e-08 2.9066 0.629593 1.772 1.75028C0.637409 2.87096 0 4.39093 0 5.97582C0 12.1896 7.15 17.3168 11 19.9375C14.85 17.3168 22 12.1896 22 5.97582C22 5.19106 21.8435 4.41399 21.5395 3.68897C21.2354 2.96395 20.7898 2.30518 20.228 1.75028C19.6662 1.19537 18.9993 0.755195 18.2652 0.454882C17.5312 0.154569 16.7445 6.36301e-08 15.95 6.36301e-08Z" fill="#A01257"/>
</svg>
