<svg width="52" height="52" viewBox="0 0 52 52" fill="none" xmlns="http://www.w3.org/2000/svg">
<circle cx="26" cy="26" r="25" stroke="#A00055" stroke-width="2"/>
<path d="M32 14C30.7816 13.9998 29.5812 14.29 28.5006 14.846C27.4201 15.4019 26.4913 16.2072 25.7931 17.1935C25.0949 16.2072 24.1661 15.4019 23.0856 14.846C22.005 14.29 20.8046 13.9998 19.5862 14C17.5742 14 15.6446 14.7895 14.2219 16.1947C12.7993 17.5999 12 19.5059 12 21.4932C12 29.2847 20.9655 35.7139 25.7931 39C30.6207 35.7139 39.5862 29.2847 39.5862 21.4932C39.5862 20.5092 39.39 19.5348 39.0087 18.6257C38.6275 17.7166 38.0687 16.8905 37.3643 16.1947C36.6598 15.4989 35.8235 14.947 34.9031 14.5704C33.9827 14.1938 32.9962 14 32 14Z" fill="#A00055"/>
</svg>
