<svg width="22" height="23" viewBox="0 0 22 23" fill="none" xmlns="http://www.w3.org/2000/svg">
<path d="M15.924 13.1222C14.7274 13.1222 13.8918 14.0085 13.8918 15.2774C13.8918 16.6014 14.8035 17.6782 15.924 17.6782C17.0449 17.6782 17.9568 16.6011 17.9568 15.2774C17.9568 14.0085 17.1209 13.1222 15.924 13.1222ZM15.924 16.8075C15.2835 16.8075 14.7625 16.1211 14.7625 15.2774C14.7625 14.4973 15.2185 13.9928 15.924 13.9928C16.6302 13.9928 17.0861 14.497 17.0861 15.2774C17.0861 16.1211 16.5649 16.8075 15.924 16.8075ZM15.9235 10.5321C15.8843 10.5321 15.8463 10.5374 15.8074 10.5382V2.9023C15.8074 1.29965 14.5074 0 12.9051 0H2.9023C1.29994 0 0 1.29965 0 2.9023V16.9474C0 18.5503 1.29994 19.8497 2.9023 19.8497H10.7922C11.8704 21.5507 13.765 22.6855 15.9237 22.6855C19.2742 22.6855 22 19.9594 22 16.6087C22 13.258 19.2739 10.5321 15.9235 10.5321ZM6.39057 3.04741H9.41651C9.73692 3.04741 9.99697 3.30746 9.99697 3.62787C9.99697 3.94829 9.73692 4.20833 9.41651 4.20833H6.39057C6.06987 4.20833 5.81011 3.94829 5.81011 3.62787C5.81011 3.30746 6.06987 3.04741 6.39057 3.04741ZM3.00591 6.43904H12.8012C13.1216 6.43904 13.3816 6.69908 13.3816 7.0195C13.3816 7.33991 13.1216 7.59996 12.8012 7.59996H3.00591C2.68521 7.59996 2.42545 7.33991 2.42545 7.0195C2.42545 6.69908 2.68521 6.43904 3.00591 6.43904ZM3.00591 8.69877H12.8012C13.1216 8.69877 13.3816 8.95881 13.3816 9.27923C13.3816 9.59964 13.1216 9.85969 12.8012 9.85969H3.00591C2.68521 9.85969 2.42545 9.59964 2.42545 9.27923C2.42545 8.95881 2.68521 8.69877 3.00591 8.69877ZM3.00591 10.9585H12.8012C12.9779 10.9585 13.1335 11.0403 13.24 11.1651C12.7292 11.4179 12.2602 11.7395 11.8428 12.1194H3.00591C2.68521 12.1194 2.42545 11.8594 2.42545 11.539C2.42545 11.2185 2.68521 10.9585 3.00591 10.9585ZM9.84808 16.6389H3.00591C2.68521 16.6389 2.42545 16.3788 2.42545 16.0584C2.42545 15.738 2.68521 15.478 3.00591 15.478H9.95604C9.88697 15.8448 9.84663 16.2221 9.84663 16.6087C9.84663 16.6191 9.84808 16.6287 9.84808 16.6389ZM3.00591 14.3791C2.68521 14.3791 2.42545 14.1191 2.42545 13.7987C2.42545 13.4783 2.68521 13.2182 3.00591 13.2182H10.8833C10.6285 13.5958 10.4204 14.0065 10.2547 14.4378L3.00591 14.3791ZM15.9235 21.8148C14.9625 21.8148 14.0648 21.5487 13.2917 21.0927C13.2975 20.8846 13.3099 20.6237 13.3224 20.5526C13.5482 19.3043 14.8618 19.0423 15.924 19.0423C16.6583 19.0423 18.384 19.2042 18.5471 20.7027C18.5524 20.75 18.5561 20.9407 18.5576 21.0913C17.7838 21.5481 16.885 21.8148 15.9235 21.8148ZM19.3923 20.4795C19.1674 19.0327 17.884 18.1716 15.924 18.1716C13.9821 18.1716 12.7216 18.9828 12.4654 20.3997C12.4613 20.422 12.4581 20.4505 12.4546 20.4798C11.3915 19.5258 10.7176 18.1463 10.7176 16.609C10.7176 13.7383 13.0531 11.4028 15.9237 11.4028C18.7941 11.4028 21.1293 13.7383 21.1293 16.609C21.1287 18.146 20.4551 19.5258 19.3923 20.4795Z" fill="#A01257"/>
</svg>
