<svg width="52" height="52" viewBox="0 0 52 52" fill="none" xmlns="http://www.w3.org/2000/svg">
<circle cx="26" cy="26" r="25" stroke="#A00055" stroke-width="2"/>
<path fill-rule="evenodd" clip-rule="evenodd" d="M18.8914 15.462C22.5266 12.7998 27.6774 13.5456 30.3778 17.1318C33.0738 20.687 32.3163 25.7713 28.6827 28.4341C25.0481 31.0969 19.9244 30.3473 17.2257 26.7616C14.5285 23.1765 15.2573 18.1237 18.8914 15.462ZM19.5221 16.2779C16.3613 18.6079 15.6906 23.0208 18.0547 26.1694C20.42 29.2896 24.8897 29.9209 28.0814 27.6171C31.2427 25.2844 31.8831 20.8748 29.5476 17.7241C27.1834 14.6055 22.6823 13.9452 19.5221 16.2779ZM28.7939 28.7428C28.0846 29.2682 27.4432 29.3837 27.9437 30.0547L33.5711 37.5171C34.1025 38.1869 35.066 38.3458 35.7753 37.8194C36.4553 37.3261 36.6131 36.3459 36.0844 35.6761L30.4873 28.2121C29.9549 27.5128 29.4733 28.2484 28.7939 28.7428ZM21.2009 21.9539C20.4916 22.451 20.3631 23.4589 20.8636 24.1609L23.7608 27.9799L24.4397 27.4855L24.4999 27.4518L22.8617 24.079L23.2804 23.8731L24.9141 27.1543L25.1516 26.9895L28.3406 24.6258L28.6952 24.3626L25.9699 21.901L26.3191 21.5495L29.11 24.0667L29.6691 23.6398L26.7735 19.8224C26.2714 19.1216 25.246 18.9653 24.5367 19.4913L21.2009 21.9539ZM20.3192 17.3276C19.463 17.9515 19.2867 19.1467 19.9174 19.961C20.5507 20.8069 21.7604 20.9823 22.5874 20.3591C23.4447 19.7347 23.6225 18.5389 22.9919 17.7257C22.3569 16.8788 21.177 16.7017 20.3192 17.3276Z" fill="#A00055"/>
</svg>
