<svg width="22" height="22" viewBox="0 0 22 22" fill="none" xmlns="http://www.w3.org/2000/svg">
<g clip-path="url(#clip0_247:262)">
<path d="M7.30006 0.100006C5.92766 0.33558 4.62762 0.882953 3.50005 1.7C2.79404 2.25622 2.15628 2.89399 1.60006 3.60001C1.208 4.16545 0.873029 4.76839 0.60006 5.39999C-0.100028 7.11602 -0.20564 9.01699 0.300057 10.8C0.470485 11.6277 0.811015 12.4109 1.30006 13.1C2.32087 14.8617 3.96054 16.1805 5.90005 16.8L7.30006 17.1C8.36606 17.2187 9.44354 17.185 10.5001 17C11.4619 16.8086 12.3783 16.4353 13.2001 15.9C13.5001 15.7 13.6001 15.7 13.6001 15.8C13.5979 15.9398 13.6323 16.0777 13.7001 16.2L16.4 19L19.3001 21.8C19.5655 21.9744 19.8857 22.0455 20.2001 22C20.4248 22.012 20.6493 21.9733 20.857 21.8867C21.0648 21.8002 21.2503 21.668 21.4 21.5C21.5941 21.3448 21.7494 21.1465 21.8536 20.9209C21.9577 20.6952 22.0079 20.4484 22.0001 20.2C22.0074 19.8434 21.9025 19.4936 21.7001 19.2L19.0001 16.4C16.4001 13.9 16.2001 13.7 15.8001 13.6H15.7001L15.9 13.3C16.4195 12.4701 16.7916 11.5566 17.0001 10.6C17.1993 9.30764 17.1993 7.99237 17.0001 6.7C16.4927 4.86853 15.4477 3.23133 14.0001 2L12.5001 1C11.6691 0.628683 10.796 0.360033 9.90005 0.199997L7.30006 0.100006ZM9.70005 2.3C10.7069 2.49993 11.6543 2.92853 12.4692 3.55272C13.2842 4.17691 13.9448 4.97999 14.4 5.89999C15.0979 7.33506 15.2056 8.98645 14.7001 10.5C14.4608 11.1604 14.1595 11.7966 13.8001 12.4L12.4 13.8C11.5083 14.3614 10.5277 14.7672 9.50005 15C8.15888 15.1782 6.79553 14.9335 5.60006 14.3L5.30006 14.1C4.84814 13.8344 4.44278 13.4966 4.10006 13.1C3.47514 12.5332 2.98138 11.837 2.65322 11.0598C2.32507 10.2826 2.17042 9.44313 2.20005 8.60001C2.2436 7.92609 2.34396 7.25704 2.50005 6.60001C2.8177 5.69954 3.32984 4.88011 4.00005 4.2L4.30006 3.89999L4.70005 3.5C5.45384 2.90927 6.35118 2.52962 7.30006 2.39999C8.0869 2.21785 8.90079 2.18394 9.70005 2.3V2.3Z" fill="#A00055"/>
</g>
<defs>
<clipPath id="clip0_247:262">
<rect width="22" height="22" fill="white"/>
</clipPath>
</defs>
</svg>
